<?xml version="1.0" standalone="no"?>
<!DOCTYPE svg PUBLIC "-//W3C//DTD SVG 20010904//EN"
 "http://www.w3.org/TR/2001/REC-SVG-20010904/DTD/svg10.dtd">
<svg version="1.0" xmlns="http://www.w3.org/2000/svg"
 width="302.000000pt" height="302.000000pt" viewBox="0 0 302.000000 302.000000"
 preserveAspectRatio="xMidYMid meet">

<g transform="translate(0.000000,302.000000) scale(0.100000,-0.100000)"
fill="#000000" stroke="none">
<path d="M412 3008 c-18 -18 -15 -28 9 -28 11 0 17 -4 14 -10 -3 -5 3 -10 14
-10 12 0 21 -5 21 -11 0 -5 4 -8 9 -5 5 3 20 -3 34 -14 14 -11 31 -20 37 -20
7 0 24 -8 38 -18 15 -11 41 -25 57 -33 48 -24 189 -101 201 -110 6 -5 39 -23
75 -41 35 -19 75 -41 89 -51 13 -9 32 -17 41 -17 9 0 22 -6 28 -14 7 -8 36
-26 66 -42 30 -15 55 -31 55 -36 0 -4 6 -8 13 -8 15 -1 73 -29 109 -53 15 -10
31 -16 36 -13 6 3 12 -4 16 -16 4 -17 8 -20 17 -11 6 6 17 9 23 7 7 -3 26 40
51 116 21 66 44 120 50 120 6 0 39 -85 73 -190 54 -160 68 -193 92 -210 15
-11 35 -20 43 -20 8 0 20 -7 27 -15 7 -8 16 -12 22 -9 12 8 38 -14 34 -29 -1
-7 -1 -9 1 -4 3 4 10 4 15 1 6 -4 8 -2 4 4 -3 6 -2 13 3 16 5 4 17 29 26 56 9
28 21 50 26 50 11 0 109 -60 109 -67 0 -11 -89 -101 -94 -96 -3 3 -4 -4 -3
-16 1 -19 2 -19 22 -3 11 9 17 13 13 8 -6 -7 60 -46 169 -100 13 -6 23 -14 23
-18 0 -5 15 -8 33 -8 21 0 27 -3 19 -9 -21 -13 47 -21 174 -21 61 0 114 -3
117 -6 6 -6 -49 -55 -82 -74 -8 -4 -11 -13 -7 -19 6 -9 11 -9 22 0 13 11 18 6
15 -14 -1 -4 7 -10 16 -14 10 -3 27 -14 38 -23 11 -10 31 -21 45 -26 32 -11
182 -93 278 -150 40 -24 76 -44 81 -44 12 0 70 -30 76 -40 5 -8 63 -40 72 -40
1 0 3 235 3 523 0 567 -4 611 -55 706 -49 89 -139 165 -243 205 -57 21 -59 21
-1177 24 -874 2 -1123 0 -1133 -10z"/>
<path d="M352 3006 c2 -1 10 -7 19 -14 14 -10 18 -10 22 1 4 10 -2 15 -19 15
-14 0 -24 -1 -22 -2z"/>
<path d="M1396 2433 c-6 -14 -5 -15 5 -6 7 7 10 15 7 18 -3 3 -9 -2 -12 -12z"/>
<path d="M1775 2220 c3 -5 8 -10 11 -10 2 0 4 5 4 10 0 6 -5 10 -11 10 -5 0
-7 -4 -4 -10z"/>
</g>
</svg>
